<?xml version="1.0" encoding="UTF-8" standalone="no"?>
<!-- Created with Inkscape (http://www.inkscape.org/) -->

<svg
   version="1.1"
   id="svg2"
   width="512"
   height="512"
   viewBox="0 0 512 512"
   sodipodi:docname="logo.svg"
   inkscape:version="1.2.2 (b0a8486541, 2022-12-01)"
   xmlns:inkscape="http://www.inkscape.org/namespaces/inkscape"
   xmlns:sodipodi="http://sodipodi.sourceforge.net/DTD/sodipodi-0.dtd"
   xmlns="http://www.w3.org/2000/svg"
   xmlns:svg="http://www.w3.org/2000/svg">
  <defs
     id="defs6">
    <filter
       style="color-interpolation-filters:sRGB"
       inkscape:label="Greyscale"
       id="filter184"
       x="0"
       y="0"
       width="1"
       height="1">
      <feColorMatrix
         values="10 10 10 -10 0 10 10 10 -10 0 10 10 10 -10 0 0 0 0 1 0 "
         id="feColorMatrix182"
         result="fbSourceGraphic" />
      <feColorMatrix
         result="fbSourceGraphicAlpha"
         in="fbSourceGraphic"
         values="0 0 0 -1 0 0 0 0 -1 0 0 0 0 -1 0 0 0 0 1 0"
         id="feColorMatrix186" />
      <feColorMatrix
         id="feColorMatrix188"
         values="10 10 10 -10 0 10 10 10 -10 0 10 10 10 -10 0 0 0 0 1 0 "
         in="fbSourceGraphic" />
    </filter>
  </defs>
  <sodipodi:namedview
     id="namedview4"
     pagecolor="#ffffff"
     bordercolor="#000000"
     borderopacity="0.25"
     inkscape:showpageshadow="2"
     inkscape:pageopacity="0.0"
     inkscape:pagecheckerboard="0"
     inkscape:deskcolor="#d1d1d1"
     showgrid="false"
     inkscape:zoom="1.3242188"
     inkscape:cx="255.62242"
     inkscape:cy="256"
     inkscape:window-width="1500"
     inkscape:window-height="931"
     inkscape:window-x="0"
     inkscape:window-y="0"
     inkscape:window-maximized="1"
     inkscape:current-layer="g8" />
  <g
     inkscape:groupmode="layer"
     inkscape:label="Image"
     id="g8"
     style="display:inline">
    <path
       style="fill:#030303;stroke:none"
       d="m 64.481796,438.53747 c 0,8.193 -4.0577,31.236 5.0648,35.245 7.268,3.194 20.0504,0.755 27.9352,0.755 h 64.000004 200 57 c 7.109,0 18.368,2.132 24.935,-0.755 9.123,-4.009 5.065,-27.052 5.065,-35.245 6.705,0 18.494,2.287 23.917,-2.343 5.008,-4.275 3.083,-13.744 3.083,-19.657 v -52 c 0,-78.993 -0.549,-158.009 0,-237 0.147,-21.219 0,-42.655796 0,-63.999996 0,-6.3199 2.327,-18.5603 -1.63,-23.8426 -4.5,-6.0094 -19.688,-3.1574 -26.37,-3.1574 h -78 -215 c -35.869,0 -72.175204,-1.6545 -108.000004,0.0185 -11.6596,0.5445 -9,13.6483 -9,21.9815 v 71.999996 234 52 c 0,5.913 -1.925,15.382 3.0833,19.657 5.4229,4.63 17.2115,2.343 23.9167,2.343 M 457.4818,54.537474 V 109.53747 H 55.481796 V 54.537474 H 457.4818 m -349,18.5139 c -11.364704,2.6192 -7.658,19.855497 4,17.268497 11.151,-2.4747 6.828,-19.764097 -4,-17.268497 m 45.005,0.0602 c -11.981,3.5174 -5.654,21.250197 5.99,16.796297 10.258,-3.923297 4.469,-19.866897 -5.99,-16.796297 m 45.995,-0.0741 c -11.777,3.0208 -6.755,20.210497 4.995,17.157397 10.651,-2.7676 5.619,-19.879997 -4.995,-17.157397 m 258,54.499996 v 293 H 55.481796 v -293 H 457.4818 m -377.995404,46.63 c -5.9355,2.257 -6.0025,7.995 -6.0046,13.37 v 36 131 31 c 0,4.731 -0.7702,10.173 3.1574,13.657 5.1122,4.536 16.4612,2.343 22.8426,2.343 h 62.000004 191 56 c 7.325,0 18.104,1.991 24.995,-0.63 5.936,-2.257 6.003,-7.995 6.005,-13.37 v -36 -131 -31 c 0,-4.731 0.77,-10.173 -3.157,-13.657 -5.113,-4.536 -16.462,-2.343 -22.843,-2.343 h -62 -191 -56 c -7.325204,0 -18.103604,-1.991 -24.995404,0.63 m 341.995404,17.37 v 192 H 91.481796 v -192 H 421.4818 m -237,27.625 c -23.702,3.548 -21.885,39.912 -10.569,53.356 5.321,6.322 15.589,11.24 14.273,21.019 -1.095,8.13 -9.181,12.387 -14.098,18.06 -6.399,7.384 -8.673,15.36 -8.606,24.94 0.069,9.939 9.076,31.063 22,28.444 19.211,-3.892 -5.425,-23.423 -3.671,-32.444 1.58,-8.128 9.451,-12.253 14.532,-18 6.669,-7.544 9.043,-17.11 8.005,-27 -1.713,-16.325 -21.497,-22.46 -22.709,-37 -0.795,-9.545 9.642,-12.783 11.287,-21 1.181,-5.897 -4.712,-11.233 -10.444,-10.375 m 71,-0.009 c -23.346,2.783 -22.828,38.996 -11.722,52.384 5.2,6.268 14.622,10.857 15.028,20 0.272,6.149 -3.964,10.847 -8.306,14.588 -13.988,12.052 -20.127,31.002 -9.13,47.412 3.291,4.91 9.475,12.439 16.13,11.657 19.861,-2.333 -4.734,-24.42 -3.046,-32.657 1.524,-7.441 8.087,-10.962 12.907,-16.06 6.24,-6.599 10.296,-15.784 10.116,-24.94 -0.174,-8.828 -4.22,-17.51 -10.241,-23.866 -4.703,-4.964 -11.483,-8.797 -12.708,-16.134 -1.65,-9.873 8.579,-12.785 10.629,-21 1.527,-6.118 -3.175,-12.157 -9.657,-11.384 m 71,-0.042 c -24.784,2.046 -22.519,40.024 -11.352,53.366 4.947,5.91 13.919,10.433 14.269,19.06 0.287,7.083 -5.258,11.666 -9.917,16.06 -12.888,12.155 -17.317,29.053 -8.148,44.94 3.121,5.407 9.122,12.942 16.148,12.583 20.633,-1.052 -4.22,-24.749 -2.519,-32.583 1.851,-8.52 10.05,-12.733 15.241,-19 6.291,-7.595 8.26,-17.348 7.139,-27 -1.842,-15.862 -21.263,-21.662 -22.69,-36 -0.913,-9.171 8.988,-12.385 11.065,-20.005 1.554,-5.701 -3.195,-11.92 -9.236,-11.421 m 104,219.426 v 18 H 82.481796 v -18 z"
       id="path206" />
  </g>
</svg>
